<svg viewBox="-10.262626262626327 282.83749999999986 2052.525252525252 1799.8749999999998" xmlns="http://www.w3.org/2000/svg" xmlns:xlink="http://www.w3.org/1999/xlink" overflow="visible" width="2052.525252525252px" height="1799.8749999999998px"><defs><linearGradient x1="50%" y1="0%" x2="50%" y2="100%" id="masterspot-ilustrationsgiant-phone-linearGradient-1"><stop stop-color="#E7EAFD" offset="0%"/><stop stop-color="#FFF" stop-opacity="0" offset="100%"/></linearGradient><polygon id="masterspot-ilustrationsgiant-phone-path-2" points="0.354636271 0.4782 167.3115 0.4782 167.3115 15 0.354636271 15"/></defs><g id="Master/Spot Ilustrations/Giant Phone" stroke="none" stroke-width="1" fill="none" fill-rule="evenodd"><path d="M137.224743,1462.94206 C247.667919,1234.09121 468.322998,1324.15219 495.514512,1243.61691 C522.706026,1163.08162 593.675261,906.995011 881.310127,906.995011 C1168.94499,906.995011 1126.36912,1063.59201 1346.43577,994.419623 C1469.17793,955.838726 1603.73751,966.674981 1654.78789,1085.41079 C1690.64326,1168.80522 1692.06441,1243.61691 1869.26709,1349.16368 C2046.46977,1454.71045 2187.21781,1925.62558 1688.13825,2001.51576 C1189.05869,2077.40594 760.809779,2071.25859 495.514512,1991.13936 C230.219245,1911.02013 26.7815677,1691.79291 137.224743,1462.94206 Z" id="Background" fill-opacity=".5" fill="url(#masterspot-ilustrationsgiant-phone-linearGradient-1)" opacity=".75"/><g id="Outdoor Plants" transform="translate(375.500000, 1572.500000) scale(-1, 1) translate(-375.500000, -1572.500000) translate(0.000000, 1090.000000) scale(1 1)"><g id="Outdoor Plants/Trees" stroke="none" stroke-width="1" fill="none" fill-rule="evenodd"><g id="Group" transform="translate(50.000000, 27.000000)"><path d="M246.327941,707.554023 C202.725234,648.694159 266.995654,634.469818 237.177083,579.041474 C201.045875,511.877502 252.889207,525.364984 230.558991,457.77841 C212.889507,404.298257 182.034281,401.995081 179.286724,325.770544 C176.543382,249.546006 39.2582753,245.25238 68.925141,351.777408 C98.5962208,458.302435 22.2672523,432.071593 35.6974086,509.466735 C53.6492336,612.915227 -18.38566,571.479753 4.55980649,651.097777 C24.0792556,718.828035 -59.1552187,832.362634 138.705486,859 C314.797719,849.998599 289.934862,766.418112 246.327941,707.554023 Z" id="Fill-1" fill="#009BA0"/><path d="M95,585 C95,585 102.269883,617.395249 137,651" id="Stroke-5" stroke="#090E2B" stroke-width="9.107" stroke-linecap="round" stroke-linejoin="round"/><path d="M63,713 C63,713 75.8067111,744.89889 137,778" id="Stroke-7" stroke="#090E2B" stroke-width="9.107" stroke-linecap="round" stroke-linejoin="round"/><path d="M199,637 C199,637 190.990083,687.972701 137,725" id="Stroke-9" stroke="#090E2B" stroke-width="9.107" stroke-linecap="round" stroke-linejoin="round"/><path d="M608.603445,473.480495 C570.590587,379.998182 626.937388,314.013535 549.627883,136.939688 C472.318378,-40.1341592 367.026875,-40.7590157 351.056381,107.78507 C335.090104,256.329155 210.936686,350.641456 268.195115,484.721371 C324.468099,616.493705 207.88992,647.351714 245.711222,745.061987 C293.787219,869.262883 452.912681,874 452.912681,874 C626.199908,874 654.358401,816.786582 667.882995,767.076651 C703.354583,636.700085 625.009296,513.826235 608.603445,473.480495 Z" id="Fill-11" fill="#FFB201"/><path d="M535,314 C535,314 520.978644,385.165722 454,459" id="Stroke-15" stroke="#090E2B" stroke-width="9.107" stroke-linecap="round" stroke-linejoin="round"/><path d="M560,611 C560,611 541.481013,682.167801 453,756" id="Stroke-17" stroke="#090E2B" stroke-width="9.107" stroke-linecap="round" stroke-linejoin="round"/><path d="M365,465 C365,465 376.498556,549.574282 454,611" id="Stroke-19" stroke="#090E2B" stroke-width="9.107" stroke-linecap="round" stroke-linejoin="round"/><line x1="136" y1="938" x2="136" y2="511" id="Stroke-3" stroke="#090E2B" stroke-width="9.107" stroke-linecap="round" stroke-linejoin="round"/><line x1="453" y1="932" x2="453" y2="226" id="Stroke-13" stroke="#090E2B" stroke-width="9.107" stroke-linecap="round" stroke-linejoin="round"/></g></g></g><g id="Floor" transform="translate(0.000000, 2054.500000)" fill="#090E2B" fill-rule="nonzero"><path d="M1228.5,-2.5 C1230.433,-2.5 1232,-0.932996624 1232,1 C1232,2.8685634 1230.53572,4.39512645 1228.69204,4.49482114 L1228.5,4.5 L0.290769851,4.5 C-1.64222677,4.5 -3.20923015,2.93299662 -3.20923015,1 C-3.20923015,-0.868563404 -1.74495255,-2.39512645 0.098734648,-2.49482114 L0.290769851,-2.5 L1228.5,-2.5 Z" id="Path-4"/><path d="M2032.5,-2.5 C2034.433,-2.5 2036,-0.932996624 2036,1 C2036,2.8685634 2034.53572,4.39512645 2032.69204,4.49482114 L2032.5,4.5 L1331.5,4.5 C1329.567,4.5 1328,2.93299662 1328,1 C1328,-0.868563404 1329.46428,-2.39512645 1331.30796,-2.49482114 L1331.5,-2.5 L2032.5,-2.5 Z" id="Path-4-Copy"/></g><g id="Phone" transform="translate(270.000000, 306.000000) scale(1 1)"><g id="Phone/Screen 1" stroke="none" stroke-width="1" fill="none" fill-rule="evenodd"><g id="Group-19"><path d="M855.432,1748.85552 L106.6968,1748.85552 C47.7696,1748.85552 0,1701.08592 0,1642.15872 L0,106.69632 C0,47.76912 47.7696,-0.000479999997 106.6968,-0.000479999997 L855.432,-0.000479999997 C914.3592,-0.000479999997 962.1288,47.76912 962.1288,106.69632 L962.1288,1642.15872 C962.1288,1701.08592 914.3592,1748.85552 855.432,1748.85552 Z" id="Stroke-1" fill="#090E2B"/><path d="M827.33976,71.99976 L714.03336,71.99976 L714.03336,101.26056 C714.03336,141.15336 681.69336,173.49576 641.79816,173.49576 L320.33016,173.49576 C280.43496,173.49576 248.09256,141.15336 248.09256,101.25816 L248.09256,71.99976 L134.79096,71.99976 C100.11096,71.99976 71.99736,100.11096 71.99736,134.79096 L71.99736,1614.06456 C71.99736,1648.74456 100.11096,1676.85576 134.79096,1676.85576 L827.33736,1676.85576 C862.01736,1676.85576 890.12856,1648.74456 890.12856,1614.06456 L890.12856,134.79096 C890.12856,100.11096 862.01736,71.99976 827.33976,71.99976 Z" id="Stroke-3" fill="#FFF"/><path d="M280.88976,1317.76248 L190.76016,1317.76248 C169.25616,1317.76248 151.82496,1300.33128 151.82496,1278.82728 L151.82496,1188.69768 C151.82496,1167.19368 169.25616,1149.76248 190.76016,1149.76248 L280.88976,1149.76248 C302.39376,1149.76248 319.82496,1167.19368 319.82496,1188.69768 L319.82496,1278.82728 C319.82496,1300.33128 302.39376,1317.76248 280.88976,1317.76248 Z" id="Stroke-13" stroke="#C7D2F2" stroke-width="5" stroke-linecap="round" stroke-linejoin="round" stroke-dasharray="10,12"/></g><path d="M281.0648,1318 L190.9352,1318 C169.4312,1318 152,1300.5688 152,1279.0648 L152,1188.9352 C152,1167.4312 169.4312,1150 190.9352,1150 L281.0648,1150 C302.5688,1150 320,1167.4312 320,1188.9352 L320,1279.0648 C320,1300.5688 302.5688,1318 281.0648,1318 Z" id="Stroke-13-Copy-2" fill="#A191FF"/><path d="M781.741436,802.6768 L191.258564,802.6768 C169.575969,802.6768 152,785.2456 152,763.7416 L152,444.9352 C152,423.4312 169.575969,406 191.258564,406 L781.741436,406 C803.424031,406 821,423.4312 821,444.9352 L821,763.7416 C821,785.2456 803.424031,802.6768 781.741436,802.6768 Z" id="Stroke-5-Copy" fill="#FFB201"/><path d="M281.0648,1069 L190.9352,1069 C169.4312,1069 152,1051.5664 152,1030.0648 L152,939.9352 C152,918.4312 169.4312,901 190.9352,901 L281.0648,901 C302.5688,901 320,918.4312 320,939.9352 L320,1030.0648 C320,1051.5664 302.5688,1069 281.0648,1069 Z" id="Stroke-7-Copy" fill="#FF0057"/><rect id="Rectangle" fill="#E7EAFD" x="378" y="901" width="443" height="18" rx="9"/><rect id="Rectangle-Copy-3" fill="#E7EAFD" x="378" y="1162" width="443" height="18" rx="9"/><rect id="Rectangle-Copy" fill="#E7EAFD" x="378" y="965" width="332" height="18" rx="9"/><rect id="Rectangle-Copy-4" fill="#E7EAFD" x="378" y="1226" width="332" height="18" rx="9"/><rect id="Rectangle-Copy-2" fill="#E7EAFD" x="378" y="1029" width="257" height="18" rx="9"/><rect id="Rectangle-Copy-5" fill="#E7EAFD" x="378" y="1290" width="257" height="18" rx="9"/></g></g><g transform="translate(1477.000000, 1307.000000) scale(-1, 1) translate(-1477.000000, -1307.000000) translate(922.000000, 557.000000) scale(1 1)" id="Master/Character/Standing"><g id="Master/Character/Standing" stroke="none" stroke-width="1" fill="none" fill-rule="evenodd"><g id="Lower Body/Standing" transform="translate(-64.000000, 629.000000) scale(1 1)"><g id="Lower Body/Standing/Skirt 3" stroke="none" stroke-width="1" fill="none" fill-rule="evenodd"><g id="Group" transform="translate(420.000000, 0.000000)"><path d="M97,224.870199 C97,224.870199 130.917774,340.170164 124.313813,386.112835 C117.525006,433.336224 110.63519,485.838515 111.89174,534.993111 C113.016979,579.041051 123.741093,677.537689 115.657351,755.762729 C114.719989,764.832108 111.151345,784.892955 109.663484,793.301711 C101.55146,818.370929 146.085268,847.894286 178.16165,860.064134 C197.405863,867.366448 212.443056,851.657405 212.443056,851.657405 C212.443056,851.657405 161.158824,799.250356 162.634564,781.196709 C166.22543,737.266303 221.734864,506.514389 237.025589,422.211011 C243.360866,387.276018 265,215.317511 265,215.317511 C265,215.317511 153.543765,173.390252 131.687462,175.047888 C114.077572,176.383319 97,224.870199 97,224.870199" id="leg-2" fill="#ff8282"/><path d="M206.293461,845.441838 C206.293461,845.441838 209.974474,852.68751 198.517713,852.984721 C190.350497,853.19774 176.407357,852.918787 166.838139,846.131612 C157.26791,839.343423 108.945382,798.540237 108.945382,793.624581 C108.945382,790.66261 104.698915,798.868894 102.945908,804.938906 C95.0892357,832.13934 113.54589,864.680451 113.779557,871 L129.648679,871 C129.648679,871 133.273045,846.778782 134.206701,844.671928 C135.141369,842.566088 163.575906,871 179.023213,871 L234.312253,871 C242.154763,871 232.840454,857.345514 206.293461,845.441838" id="shoe-2" fill="#090E2B"/><path d="M64,211.537999 C70.2638572,284.893503 96.5997931,348.947298 94.0954649,395.268509 C91.5091438,443.147094 73.3876877,481.52145 75.0042649,558.340033 C76.1643134,613.478932 93.6885369,733.445249 85.6906805,774.224522 C83.9364361,783.167771 74.492062,785.423835 72.8471415,798.256467 C69.4996018,824.384485 110.886813,847.902031 143.032102,860.065336 C162.31968,867.363117 177.389176,851.663826 177.389176,851.663826 C177.389176,851.663826 123.470202,801.593983 126.061584,781.667104 C131.417445,740.482793 171.769116,541.538025 183.069972,431.235925 C190.062656,362.981881 200,213.17638 200,213.17638 C200,213.17638 85.6096998,182.401557 64,211.537999" id="leg-1" fill="#ff8282"/><path d="M173.12093,846.845385 C157.180506,833.576912 124.357788,803.444397 124,781.962108 C126.986663,755.742091 131.607327,729.72661 135.843701,703.693915 C148.249057,630.364948 172.984339,503.833496 181.38777,431.450252 C189.276435,363.50097 186.744397,294.428768 190.672929,226.104842 C190.700452,225.466935 191.244779,224.97281 191.887982,225 C192.528127,225.030526 193.024545,225.569203 192.999061,226.205085 C189.554714,290.228706 191.946084,368.040238 184.460058,431.906913 C176.047453,503.670476 151.353964,631.432177 139.105586,704.23158 C134.915083,730.555889 130.0457,756.841722 127.303678,783.357404 C129.439193,800.593052 148.15222,819.123754 159.56474,831.880888 C164.170114,836.726959 168.968143,841.402921 173.954749,845.854097 C174.590817,846.339109 173.73865,847.3952 173.12093,846.845385" id="Fill-8" fill="#090E2B"/><path d="M173.41073,845.721798 C173.41073,845.721798 175.626051,852.63712 164.101699,852.935133 C155.885574,853.148726 141.858936,852.869021 132.231396,846.063547 C122.604873,839.258072 73.6500362,797.510847 73.6500362,792.581938 C73.6500362,789.611981 69.7210717,798.673402 67.957566,804.760797 C60.0538448,832.033549 78.621026,864.662396 78.8550747,871 L94.8202455,871 C94.8202455,871 98.467334,846.713479 99.4055639,844.599927 C100.344811,842.488409 128.950644,871 144.490457,871 L200.110593,871 C208.000068,871 199.936583,856.630289 173.41073,845.721798" id="shoe-1" fill="#090E2B"/><path d="M265.550356,0 C265.550356,0 311.015243,105.944161 312,222.987995 C229.599188,283.926226 129.0922,255.267197 129.0922,255.267197 C129.0922,255.267197 125.373804,218.531542 120.303265,208.637751 C114.517183,215.575741 102.437965,251.938256 102.437965,251.938256 C102.437965,251.938256 7.47719547,241.656155 0.388561787,231.619782 C-6.7000719,221.583408 85.5492595,0 85.5492595,0 L265.550356,0 Z" id="skirt" fill="#090E2B"/></g></g></g><g id="Upper Body/Standing" transform="translate(69.000000, -172.000000) scale(1 1)"><g id="Upper Body/Standing/With Book 2" stroke="none" stroke-width="1" fill="none" fill-rule="evenodd"><path d="M717.692691,297.626781 C716.046534,284.918996 712.272887,271.468531 714.335328,270.508579 C716.39777,269.548627 723.143691,270.617781 725.235691,279.080781 C737.240452,251.768132 741.069128,239.203899 751.374174,244.125662 C758.048097,247.313175 767.993487,260.599909 768.082721,267.294974 C768.462682,295.802949 746.86593,302.277821 744.81693,316.257821 C742.24893,333.779821 740.290011,402.636586 740.290011,402.636586 C740.290011,402.636586 666.465768,419.92837 674.592768,388.07037 C695.284699,351.056805 718.908768,307.01449 717.692691,297.626781 Z" id="Fill-1" fill="#ff8282" transform="translate(721.027755, 325.200195) rotate(-4.000000) translate(-721.027755, -325.200195)"/><path d="M445.228269,414 C445.228269,414 443.813454,448.996697 442.997138,460.642639 C442.320705,470.276909 436,499.534954 436,499.534954 C436,499.534954 456.121143,522.728049 487.811593,512.308469 C506.630826,506.120783 490.684186,494.656451 490.852046,483.164179 C491.199754,459.314497 491.55146,430.910613 491.55146,430.910613 L445.228269,414 Z" id="Fill-4" fill="#ff8282"/><path d="M449.994623,497 C449.994623,497 462.990811,505.736993 474.685985,509.061087 C487.718063,512.764965 495.189177,501.417468 496.530069,499.468585 C499.522901,512.829927 559.560984,832.6996 551.202589,846.905459 C528.012627,863.16414 428.001994,887.838998 428,867.030924 L449.994623,497 Z" id="Fill-6" fill="#FFF"/><path d="M438.251949,469 C438.251949,469 475.126101,504.070546 474.624827,529.455866 C474.122553,554.842187 520.739029,886.627486 471.118911,898.375038 C453.693388,902.50069 373.890776,917.422283 353.480621,902.534712 C333.072468,887.647141 348.75704,782.504547 348.75704,782.504547 C348.75704,782.504547 393.332401,512.108714 438.251949,469" id="Fill-8" fill="#3615F6"/><path d="M633.93047,484.146278 C654.060301,460.80462 666.726552,362.683037 694.939734,367.147605 C754.592889,376.587362 770.011992,414.188563 763.680042,449.142405 C756.017646,491.440612 703.914489,552.171604 680.653504,566.920184 C657.236307,581.767811 556.037383,621.363461 543.649607,609.968694 C500.586908,570.3566 490.862543,490.024388 502.589278,484.146278 C546.417459,481.981383 614.983787,506.116011 633.93047,484.146278 Z" id="Fill-10" fill="#3615F6"/><path d="M510.747674,499.619061 C516.263568,505.960939 562.288218,585.984789 563.636837,615.83951 C566.108303,670.568832 578.00104,796.18862 605.596564,850.096088 C611.58307,861.79002 597.410524,871.053382 582.147242,879.536882 C533.162452,906.766067 547.018915,865.817308 538.056215,792.147334 C525.447024,688.516659 497.807349,536.376561 498,521.491193 C498.195679,506.604825 505.23178,493.278182 510.747674,499.619061" id="Fill-12" fill="#3615F6"/><path d="M435.998772,884.430315 L436.925515,879.907863 C437.257422,878.290768 435.911796,876.822049 434.276251,877.017544 L258.253188,898.071859 C257.197481,898.198179 256.349717,899.002215 256.162769,900.05087 L234.031922,1024.67545 C233.85897,1025.64691 234.402819,1026.60333 235.323563,1026.95222 L248.683848,1032 L425.880585,1020.59612 C426.80033,1020.53697 427.566117,1019.86828 427.752065,1018.96299 L454.933508,886.380253 C455.369387,884.253868 453.599879,882.323981 451.451476,882.581633 L435.998772,884.430315 Z" id="Fill-14" fill="#FD4444"/><path d="M290,882.03569 C290,882.03569 309.05376,965.172983 307.039752,980.592729 C305.02474,996.012475 297.378337,1029.65319 313.273538,1031.9842 C341.40439,1036.10983 351.952329,1026.33564 351.952329,1026.33564 C351.952329,1026.33564 352.782631,1029.12583 357.075701,1029.5409 C362.061525,1030.02214 370.086433,1029.49578 363.533377,1024.12093 C357.336738,1019.03582 355.430158,999.84736 345.270763,989.785424 C334.386486,979.005638 356.903014,901.003581 356.149016,876.59667 C355.394014,852.190762 290,882.03569 290,882.03569" id="Fill-16" fill="#ff8282"/><path d="M424.191493,480 C424.191493,480 374.490599,498.040285 350.490254,532.11749 C331.962441,558.425405 305.76767,646.18917 298.050588,682.439855 C280.774871,763.591117 205.59698,838.894396 274.701854,891.085937 C294.38753,905.953061 387.981958,948.820252 390.437029,808.431652 C391.278109,760.348909 403.618623,660.414857 414.084501,612.092951 C419.740487,585.980169 443,509.201886 443,509.201886 L424.191493,480 Z" id="Fill-19" fill="#3615F6"/><path d="M442.106664,466 C442.106664,466 466.875632,483.544958 472.298659,499.042399 C476.993976,512.462096 479.053832,525.819318 474.292901,530 C431.792474,527.50207 420,481.507518 420,481.507518 L442.106664,466 Z" id="Fill-21" fill="#FFB201"/><path d="M490.592596,470 C490.592596,470 505.67572,479.976837 508.828413,487.211607 C509.873429,489.610296 506.194307,522.082405 496.439194,523.955109 C490.400454,525.11426 489.186825,503.520109 489.012329,494.495999 C488.836852,485.470896 490.592596,470 490.592596,470" id="Fill-23" fill="#FFB201"/><path d="M373.234113,881.818622 C384.157825,864.088229 386.994097,844.892969 387.854911,824.635805 C388.345515,804.408638 388.716729,782.413632 389.925681,762.338451 C392.379704,720.844213 398.169632,679.422967 406.878102,638.798649 C410.818985,618.667474 417.25302,598.447307 418.665638,577.859173 C419.379973,567.451116 416.985144,557.775993 417.399498,557.047059 C417.910168,556.150141 420,568.255043 420,577.906169 C420,595.197601 414.818059,612.31105 411.547367,629.162523 C405.275864,659.598764 400.657766,690.447968 397.247618,721.299171 C393.489331,755.383082 391.606175,790.391909 390.236698,824.727796 C388.939457,845.308931 385.014626,867.076958 372.096393,883.908432 C371.671003,884.458382 372.763574,882.374571 373.234113,881.818622" id="Fill-25" fill="#090E2B"/><path d="M538.178729,541.661551 C552.0815,561.618693 560.84819,584.134623 562.984132,608.55814 C563.043054,609.14332 562.928155,610.44272 562.799508,609.847537 C558.865447,592.108077 553.011494,574.593687 545.457626,558.108613 C542.956364,552.620924 538.474324,543.676171 537.362652,541.908627 C536.251963,540.141083 538.033387,541.461489 538.178729,541.661551" id="Fill-27" fill="#090E2B"/><polygon id="Fill-29" fill="#E9EFFF" points="412 1015 421.378388 1015 447 883.03864 436.476485 882"/></g></g><g id="Head" transform="translate(399.000000, 26.000000) scale(1 1)"><g id="Head/Curls Gray" stroke="none" stroke-width="1" fill="none" fill-rule="evenodd"><path d="M209.1303,107.5764 C209.1303,107.5764 211.1113,98.2314 225.6773,99.2914 C249.2283,101.0044 253.4783,123.9904 248.0753,146.5114 C244.2703,162.3754 239.1843,174.8744 240.7863,183.6624 C243.8583,200.4974 252.5503,201.2874 259.2603,219.7534 C269.9143,249.0734 243.1013,251.2114 242.8423,256.4734 C241.5893,281.9704 233.2363,293.7004 218.5563,299.2784 C196.9123,307.5034 174.1923,296.7264 162.7063,276.6714 C153.0903,259.8794 162.7063,241.4594 162.7063,241.4594 L215.4033,190.6814 L209.1303,107.5764 Z" id="Fill-1" fill="#E3E4E6"/><path d="M205.767,97.1399 C205.767,97.1399 221.196,104.7289 228.478,125.9879 C232.573,137.9419 231.011,152.6219 233.289,173.3079 C238.947,224.6639 223.805,264.7349 195.664,263.7749 C162.246,262.6339 133.329,242.6749 117.287,231.0709 C101.244,219.4649 98.301,204.9709 98.138,182.0229 C97.976,159.0749 98.811,109.7529 113.625,108.3019 C128.44,106.8519 175.746,74.3719 205.767,97.1399" id="Fill-4" fill="#ff8282"/><path d="M107.0614,192.6107 C107.0854,200.5017 138.5724,221.4117 121.8314,250.8917 C133.1984,262.7107 129.9914,309.2527 81.1124,302.6407 C59.6644,331.3287 14.1904,319.5797 19.4464,288.8517 C6.0124,286.2407 -0.5626,264.2947 1.3144,251.8917 C6.1784,219.7527 36.7984,215.7527 36.7984,215.7527 C32.9554,178.8287 66.6264,187.5857 61.9484,162.1677 C57.3234,137.0357 62.3714,102.1827 88.8184,98.0927 C92.4274,61.9707 139.0684,45.6877 171.8234,62.8627 C179.5574,55.7807 232.3524,47.4767 231.2474,95.8587 C230.8724,112.2877 218.1174,134.2907 199.5354,138.0467 C186.4244,140.6987 163.1734,136.0767 155.2004,145.8617 C144.2934,159.2467 142.4374,162.5327 125.8774,170.9817 C119.4584,174.2557 114.9164,170.9817 114.9164,170.9817 C114.9164,170.9817 107.0014,173.2507 107.0614,192.6107 Z" id="Fill-6" fill="#E3E4E6"/><path d="M114.6781,200.632 C107.5681,204.795 97.8471,199.587 92.2141,195.791 C80.0061,187.565 80.4821,174.231 90.2831,167.039 C97.4451,161.785 107.4351,162.844 116.5011,170.503 C124.3141,177.104 122.7091,195.929 114.6781,200.632" id="Fill-9" fill="#ff8282"/><path d="M96.016,174.1125 C101.095,173.1825 106.796,173.8515 110.409,179.1885 C112.059,181.6275 112.088,184.4065 112.941,187.2005 C113.034,187.5055 112.054,188.2285 110.665,184.8685 C108.859,180.5015 105.591,177.7485 102.748,176.5525 C99.045,174.9965 94.592,176.0475 93.924,175.3995 C93.228,174.7245 95.448,174.2165 96.016,174.1125" id="Fill-11" fill="#000"/><path d="M109.8988,183.5432 C107.3298,182.2192 102.4328,184.5862 102.2328,184.0792 C101.6118,182.5102 108.2128,179.7712 110.3798,181.5362 C111.9708,182.8322 111.7248,184.4842 109.8988,183.5432" id="Fill-13" fill="#000"/><path d="M133.434,241.6965 C134.317,242.0805 139.01,244.7875 141.079,245.8885 C144.872,247.9095 148.686,249.9045 152.55,251.7265 C154.541,252.6705 159.332,254.3425 158.687,254.9035 C157.447,255.9795 146.676,251.9555 139.861,247.4625 C136.238,245.0745 131.925,241.0425 133.434,241.6965" id="Fill-15" fill="#090E2B"/></g></g><g id="Expressions" transform="translate(520.000000, 159.000000) scale(1 1)"><g id="Expressions/Closed Eyes" stroke="none" stroke-width="1" fill="none" fill-rule="evenodd"><path d="M24.0758,24.1794 C25.8519526,16.1964843 49.2248,13.3983582 59.5098,19.5793582 C63.0658,21.6923582 69.6698,27.4974 63.8228,30.6574 C62.2788,31.3294 60.7788,30.6404 59.5098,29.8214 C45.4918,20.0794 22.8376733,29.744159 24.0758,24.1794 Z" id="Fill-1" fill="#090E2B" transform="translate(45.086940, 23.571248) rotate(-18.000000) translate(-45.086940, -23.571248)"/><path d="M104.459159,16.8614287 C107.81301,18.3491596 112.277799,23.2873 108.5609,23.2873 C104.844001,23.2873 96.7934026,22.2328903 91.3964026,24.4598903 C89.5114026,24.9418903 88.0809,25.8643 86.1879,26.0893 C81.8799,26.9283 79.5392891,21.768575 82.5852341,18.6492261 C86.0262801,15.1252544 97.6431592,13.4544287 104.459159,16.8614287 Z" id="Fill-4" fill="#090E2B" transform="translate(95.584306, 20.590227) rotate(7.000000) translate(-95.584306, -20.590227)"/><path d="M85.9879908,71.3386563 C85.0131141,76.2575144 78.9689699,76.7359636 75.0323155,75.6212963 C71.832522,74.7152719 71.0034674,72.851321 72.0853454,72.2537752 C73.8485675,71.2799076 79.4997296,73.9889887 81.5858367,71.4027854 C85.305606,66.7912866 73.8914605,49.8346319 77.5177277,52.5592059 C82.3102149,56.1600121 86.6386051,68.0559034 85.9879908,71.3386563 Z" id="nose" fill="#090E2B"/><path d="M94.6387968,89.5818454 C93.8707672,90.1602445 92.0677709,92.5463983 90.244688,94.0617056 C86.1444698,97.4697185 79.4745751,98.2530639 75.5444286,97.4697185 C68.1559339,95.997065 64.9595527,91.178225 63.0067117,89.8585998 C61.0538707,88.5389745 64.7200172,86.8442758 67.5249361,87.0931395 C70.3298551,87.3420033 72.2123883,88.156182 77.5654423,90.4592717 C81.0199316,91.9455259 88.8310598,89.8585998 91.0381944,88.5389745 C95.2484115,86.021725 96.5113061,88.1716685 94.6387968,89.5818454 Z" id="Fill-18" fill="#090E2B" transform="translate(78.969908, 92.408667) rotate(-6.000000) translate(-78.969908, -92.408667)"/><path d="M62.9346,45.1127 C63.5536,52.7587 53.9286,57.6257 45.7636,53.8057 C41.5576,51.8397 39.4146,48.8787 40.4396,47.6417 C41.0956,46.8497 42.9666,47.9757 43.5896,48.3457 C51.8656,53.2667 58.4216,48.8247 60.4226,44.4177 C61.2046,42.6977 62.7356,42.6557 62.9346,45.1127" id="Fill-5" fill="#090E2B"/><path d="M105.17,42.8109 C104.522,45.9149 103.316,47.4849 101.796,48.5889 C97.365,51.8059 90.136,48.5859 88.754,45.6209 C87.72,43.4039 89.161,43.3499 90.849,44.4009 C93.526,46.0709 96.073,46.4129 97.758,46.0939 C100.996,45.4829 102.535,42.2249 103.701,40.8829 C104.335,40.1539 105.675,40.3949 105.17,42.8109" id="Fill-7" fill="#090E2B"/></g></g><g id="Facial Accesories" transform="translate(517.000000, 209.000000) scale(1 1)" fill="#000"><g id="Facial Accesories/None" stroke="none" stroke-width="1" fill="none" fill-rule="evenodd" fill-opacity="0"/></g><g id="Glass" transform="translate(520.000000, 164.000000) scale(1 1)" fill="#000"><g id="Glass/None" stroke="none" stroke-width="1" fill="none" fill-rule="evenodd" fill-opacity="0"/></g></g></g><g id="Flying Objects" opacity=".5" transform="translate(0.000000, 49.000000) scale(1 1)"><g id="Flying Objects/Cloud 1" stroke="none" stroke-width="1" fill="none" fill-rule="evenodd"><path d="M479.95575,473.895048 C489.613069,459.137123 499.099888,436.733126 487.997876,423.547909 C481.436886,415.755283 470.330969,416.37302 462.370839,421.934228 C454.409408,427.495437 448.858402,436.870226 443.55859,445.96136 C452.064059,424.955151 460.742631,403.137375 461.346539,379.753193 C461.950447,356.369012 452.155166,330.873179 433.86613,323.327963 C414.905507,315.50382 394.716245,328.774134 378.352165,342.761464 C343.415317,372.620853 311.811676,408.189581 284.665759,448.195929 C286.38117,435.63948 288.09658,422.759979 286.097437,410.263412 C284.098294,397.765269 277.573747,385.527143 267.572825,381.604829 C257.656503,377.714031 246.935838,382.62441 237.627328,388.303808 C205.588977,407.842892 177.856072,437.617184 158,473.792617 C160.945352,473.792617 156.578734,478.669903 159.524086,478.669903 L479.95575,473.895048 Z" id="cloud" fill="#F0F1FF" transform="translate(325.500000, 399.834951) scale(-1, 1) translate(-325.500000, -399.834951)"/></g></g></g></svg>